<svg xmlns="http://www.w3.org/2000/svg" version="1.1" xmlns:xlink="http://www.w3.org/1999/xlink" viewBox="0 0 745 360" width="596" height="288"><g transform="matrix(1,0,0,1,0,180)"><g class="sample-group"><g transform="matrix(1,0,0,1,40,-60)" class="sample" data-sample="root"><g class="bell"><path d="M0,60L1.8,60.5L3.6,61.1L5.4,61.8L7.2,62.6L9,63.5L10.8,64.6L12.6,65.7L14.4,66.9L16.2,68.2L18,69.7L19.8,71.2L21.6,72.7L23.4,74.4L25.2,76.1L27,77.9L28.8,79.8L30.6,81.6L32.4,83.6L34.2,85.5L36,87.5L37.8,89.5L39.6,91.4L41.4,93.4L43.2,95.4L45,97.3L46.8,99.2L48.6,101L50.4,102.8L52.2,104.5L54,106.1L55.8,107.7L57.6,109.2L59.4,110.6L61.2,111.9L63,113.1L64.8,114.2L66.6,115.2L68.4,116.1L70.2,116.9L72,117.6L73.8,118.2L75.6,118.7L77.4,119.1L79.2,119.4L81,119.7L82.8,119.8L84.6,119.9L86.4,120L88.2,120L90,120L90,0L88.2,0L86.4,0L84.6,0.1L82.8,0.2L81,0.3L79.2,0.6L77.4,0.9L75.6,1.3L73.8,1.8L72,2.4L70.2,3.1L68.4,3.9L66.6,4.8L64.8,5.8L63,6.9L61.2,8.1L59.4,9.4L57.6,10.8L55.8,12.3L54,13.9L52.2,15.5L50.4,17.2L48.6,19L46.8,20.8L45,22.7L43.2,24.6L41.4,26.6L39.6,28.6L37.8,30.5L36,32.5L34.2,34.5L32.4,36.4L30.6,38.4L28.8,40.2L27,42.1L25.2,43.9L23.4,45.6L21.6,47.3L19.8,48.8L18,50.3L16.2,51.8L14.4,53.1L12.6,54.3L10.8,55.4L9,56.5L7.2,57.4L5.4,58.2L3.6,58.9L1.8,59.5L0,60L0,60" fill="#cccccc" stroke="#a5a5a5" class="subclone"></path><path d="M21.6,62.1L23.4,62.5L25.2,62.9L27,63.5L28.8,64.2L30.6,65L32.4,65.9L34.2,67L36,68.3L37.8,69.7L39.6,71.2L41.4,73L43.2,74.9L45,77L46.8,79.2L48.6,81.6L50.4,84L52.2,86.6L54,89.3L55.8,91.9L57.6,94.6L59.4,97.3L61.2,100L63,102.5L64.8,105L66.6,107.3L68.4,109.5L70.2,111.4L72,113.2L73.8,114.8L75.6,116.1L77.4,117.3L79.2,118.2L81,118.9L82.8,119.4L84.6,119.7L86.4,119.9L88.2,120L90,120L90,30L88.2,30L86.4,30L84.6,30.1L82.8,30.3L81,30.5L79.2,30.9L77.4,31.5L75.6,32.2L73.8,33.1L72,34.1L70.2,35.3L68.4,36.6L66.6,38L64.8,39.6L63,41.2L61.2,43L59.4,44.7L57.6,46.5L55.8,48.2L54,50L52.2,51.6L50.4,53.2L48.6,54.7L46.8,56.1L45,57.4L43.2,58.5L41.4,59.5L39.6,60.4L37.8,61.1L36,61.6L34.2,62L32.4,62.3L30.6,62.5L28.8,62.6L27,62.6L25.2,62.5L23.4,62.4L21.6,62.1L21.6,62.1" fill="#41ae76" stroke="#348c5f" class="subclone"></path><path d="M45,69.4L46.8,70.4L48.6,71.6L50.4,72.9L52.2,74.5L54,76.3L55.8,78.4L57.6,80.7L59.4,83.3L61.2,86.2L63,89.2L64.8,92.5L66.6,95.8L68.4,99.1L70.2,102.4L72,105.6L73.8,108.5L75.6,111.2L77.4,113.6L79.2,115.6L81,117.2L82.8,118.4L84.6,119.2L86.4,119.7L88.2,119.9L90,120L90,60L88.2,60L86.4,60L84.6,60.1L82.8,60.3L81,60.6L79.2,61.2L77.4,61.9L75.6,62.8L73.8,63.9L72,65L70.2,66.2L68.4,67.4L66.6,68.6L64.8,69.6L63,70.5L61.2,71.3L59.4,71.8L57.6,72.1L55.8,72.2L54,72.1L52.2,71.8L50.4,71.4L48.6,70.8L46.8,70.1L45,69.4L45,69.4" fill="#cf8d30" stroke="#a77227" class="subclone"></path><path d="M66.6,86.7L68.4,88.7L70.2,91.2L72,94L73.8,97.4L75.6,101L77.4,104.9L79.2,108.7L81,112.3L82.8,115.3L84.6,117.6L86.4,119.1L88.2,119.8L90,120L90,90L88.2,89.9L86.4,89.8L84.6,89.9L82.8,90.1L81,90.5L79.2,91L77.4,91.4L75.6,91.5L73.8,91.4L72,90.8L70.2,89.8L68.4,88.4L66.6,86.7L66.6,86.7" fill="#ff7f00" stroke="#ce6700" class="subclone"></path></g><text x="45" y="-6" font-family="sans-serif" font-size="12" text-anchor="middle" class="sample-display-name"><tspan dy="0" x="45">Inferred root</tspan></text></g><g transform="matrix(1,0,0,1,220,-140)" class="sample" data-sample="XXXX_pAsc_DNA1"><g class="bell"><rect width="90" height="109.7" x="0" y="0.2" fill="#cccccc" stroke="#a5a5a5" class="subclone"></rect><path d="M45,17.7L46.8,18L48.6,18.4L50.4,19L52.2,19.7L54,20.5L55.8,21.4L57.6,22.4L59.4,23.4L61.2,24.5L63,25.7L64.8,26.8L66.6,28L68.4,29.1L70.2,30.1L72,31.1L73.8,32L75.6,32.8L77.4,33.5L79.2,34L81,34.5L82.8,34.8L84.6,35L86.4,35.1L88.2,35.1L90,35.1L90,0.2L88.2,0.2L86.4,0.2L84.6,0.3L82.8,0.5L81,0.9L79.2,1.3L77.4,1.8L75.6,2.5L73.8,3.3L72,4.2L70.2,5.2L68.4,6.2L66.6,7.3L64.8,8.5L63,9.6L61.2,10.8L59.4,11.9L57.6,13L55.8,13.9L54,14.8L52.2,15.6L50.4,16.3L48.6,16.9L46.8,17.3L45,17.7L45,17.7" fill="#a6cee3" stroke="#86a6b7" class="subclone"></path><rect width="90" height="74.7" x="0" y="35.1" fill="#41ae76" stroke="#348c5f" class="subclone"></rect><rect width="90" height="74.7" x="0" y="35.1" fill="#cf8d30" stroke="#a77227" class="subclone"></rect><rect width="90" height="47.9" x="0" y="62" fill="#ff7f00" stroke="#ce6700" class="subclone"></rect><line x1="0" y1="35.144999999999996" x2="90" y2="35.144999999999996" stroke-dasharray="6,4" stroke-width="2" stroke="#41ae76" class="pass-through"></line></g><text x="45" y="-6" font-family="sans-serif" font-size="12" text-anchor="middle" class="sample-display-name"><tspan dy="0" x="45">pAsc</tspan></text></g><g transform="matrix(1,0,0,1,220,30)" class="sample" data-sample="XXXX_pPer1_DNA"><g class="bell"><rect width="90" height="110.1" x="0" y="0" fill="#cccccc" stroke="#a5a5a5" class="subclone"></rect><rect width="90" height="91.4" x="0" y="18.6" fill="#41ae76" stroke="#348c5f" class="subclone"></rect><rect width="90" height="91.4" x="0" y="18.6" fill="#cf8d30" stroke="#a77227" class="subclone"></rect><rect width="90" height="56.6" x="0" y="53.4" fill="#ff7f00" stroke="#ce6700" class="subclone"></rect></g><text x="45" y="-6" font-family="sans-serif" font-size="12" text-anchor="middle" class="sample-display-name"><tspan dy="0" x="45">pPer1</tspan></text></g><g transform="matrix(1,0,0,1,400,-55)" class="sample" data-sample="XXXX_rAsc_DNA4"><g class="bell"><rect width="90" height="110.1" x="0" y="0" fill="#cccccc" stroke="#a5a5a5" class="subclone"></rect><rect width="90" height="3.6" x="0" y="5.9" fill="#a6cee3" stroke="#86a6b7" class="subclone"></rect><rect width="90" height="100.5" x="0" y="9.5" fill="#41ae76" stroke="#348c5f" class="subclone"></rect><path d="M45,33.6L46.8,33.9L48.6,34.3L50.4,34.8L52.2,35.5L54,36.2L55.8,37L57.6,37.9L59.4,38.9L61.2,39.9L63,41L64.8,42.1L66.6,43.1L68.4,44.1L70.2,45.1L72,46L73.8,46.8L75.6,47.6L77.4,48.2L79.2,48.7L81,49.1L82.8,49.4L84.6,49.6L86.4,49.7L88.2,49.7L90,49.7L90,17.5L88.2,17.5L86.4,17.5L84.6,17.6L82.8,17.8L81,18.1L79.2,18.5L77.4,19L75.6,19.6L73.8,20.4L72,21.2L70.2,22.1L68.4,23.1L66.6,24.1L64.8,25.1L63,26.2L61.2,27.3L59.4,28.3L57.6,29.3L55.8,30.2L54,31L52.2,31.7L50.4,32.4L48.6,32.9L46.8,33.3L45,33.6L45,33.6" fill="#ff99ff" stroke="#ce7cce" class="subclone"></path><rect width="90" height="60.3" x="0" y="49.7" fill="#cf8d30" stroke="#a77227" class="subclone"></rect><path d="M45,94.9L46.8,95.2L48.6,95.5L50.4,95.9L52.2,96.4L54,97L55.8,97.6L57.6,98.4L59.4,99.1L61.2,100L63,100.8L64.8,101.6L66.6,102.5L68.4,103.3L70.2,104L72,104.8L73.8,105.4L75.6,106L77.4,106.5L79.2,106.9L81,107.2L82.8,107.4L84.6,107.6L86.4,107.7L88.2,107.7L90,107.7L90,82.1L88.2,82.1L86.4,82.2L84.6,82.3L82.8,82.4L81,82.6L79.2,83L77.4,83.4L75.6,83.9L73.8,84.4L72,85.1L70.2,85.8L68.4,86.6L66.6,87.4L64.8,88.2L63,89.1L61.2,89.9L59.4,90.7L57.6,91.5L55.8,92.2L54,92.9L52.2,93.5L50.4,94L48.6,94.4L46.8,94.7L45,94.9L45,94.9" fill="#fdbf6f" stroke="#cc9a5a" class="subclone"></path><rect width="90" height="2.3" x="0" y="107.7" fill="#ff7f00" stroke="#ce6700" class="subclone"></rect></g><text x="45" y="-6" font-family="sans-serif" font-size="12" text-anchor="middle" class="sample-display-name"><tspan dy="0" x="45">rAsc</tspan></text></g><g transform="matrix(1,0,0,1,580,-55)" class="sample" data-sample="XXXX_r2Asc_DNA"><g class="bell"><rect width="90" height="108.2" x="0" y="0.9" fill="#cccccc" stroke="#a5a5a5" class="subclone"></rect><rect width="90" height="108.2" x="0" y="0.9" fill="#41ae76" stroke="#348c5f" class="subclone"></rect><rect width="90" height="108.2" x="0" y="0.9" fill="#ff99ff" stroke="#ce7cce" class="subclone"></rect><path d="M45,56.9L46.8,57.8L48.6,59.2L50.4,60.8L52.2,62.9L54,65.3L55.8,68L57.6,70.9L59.4,74.1L61.2,77.4L63,80.8L64.8,84.2L66.6,87.7L68.4,91L70.2,94.1L72,97L73.8,99.7L75.6,102.1L77.4,104.1L79.2,105.8L81,107.1L82.8,108L84.6,108.6L86.4,109L88.2,109.1L90,109.1L90,4.6L88.2,4.6L86.4,4.8L84.6,5.1L82.8,5.7L81,6.7L79.2,8L77.4,9.6L75.6,11.7L73.8,14L72,16.7L70.2,19.6L68.4,22.8L66.6,26.1L64.8,29.5L63,32.9L61.2,36.3L59.4,39.7L57.6,42.8L55.8,45.8L54,48.5L52.2,50.8L50.4,52.9L48.6,54.6L46.8,55.9L45,56.9L45,56.9" fill="#cab2d6" stroke="#a390ad" class="subclone"></path></g><text x="45" y="-6" font-family="sans-serif" font-size="12" text-anchor="middle" class="sample-display-name"><tspan dy="0" x="45">r2Asc</tspan></text></g></g><g class="tentacle-group"><g class="tentacle-bundle" data-sample="XXXX_pAsc_DNA1"><path d="M220,-122.3C193,-122.3,193.5,-93.5,175,-58.5C156.5,-23.6,157,-50,130,-50" stroke-width="2" stroke="#cccccc" stroke-linecap="square" fill="transparent" class="tentacle" data-subclone="1"></path><path d="M220,-104.9C193,-104.9,192.8,-81.5,175,-47.8C157.2,-14.2,157,-15,130,-15" stroke-width="2" stroke="#41ae76" stroke-linecap="square" fill="transparent" class="tentacle" data-subclone="10"></path><path d="M220,-91.4C193,-91.4,192.3,-69.9,175,-37.2C157.7,-4.4,157,10,130,10" stroke-width="2" stroke="#cf8d30" stroke-linecap="square" fill="transparent" class="tentacle" data-subclone="9"></path><path d="M220,-54.1C193,-54.1,192.6,-59.8,175,-26.5C157.4,6.8,157,40,130,40" stroke-width="2" stroke="#ff7f00" stroke-linecap="square" fill="transparent" class="tentacle" data-subclone="11"></path></g><g class="tentacle-bundle" data-sample="XXXX_pPer1_DNA"><path d="M220,39.3C193,39.3,193.2,66.2,175,31.8C156.8,-2.6,157,-40,130,-40" stroke-width="2" stroke="#cccccc" stroke-linecap="square" fill="transparent" class="tentacle" data-subclone="1"></path><path d="M220,66C193,66,194.5,79.2,175,42.5C155.5,5.8,157,20,130,20" stroke-width="2" stroke="#cf8d30" stroke-linecap="square" fill="transparent" class="tentacle" data-subclone="9"></path><path d="M220,111.7C193,111.7,193.9,88.9,175,53.2C156.1,17.5,157,50,130,50" stroke-width="2" stroke="#ff7f00" stroke-linecap="square" fill="transparent" class="tentacle" data-subclone="11"></path></g><g class="tentacle-bundle" data-sample="XXXX_rAsc_DNA4"><path d="M400,-52.1C373,-52.1,372.9,-30.1,355,-63.9C337.1,-97.7,337,-139.8,310,-139.8" stroke-width="2" stroke="#cccccc" stroke-linecap="square" fill="transparent" class="tentacle" data-subclone="1"></path><path d="M400,-47.3C373,-47.3,373.4,-18.4,355,-53.2C336.6,-87.9,337,-122.3,310,-122.3" stroke-width="2" stroke="#a6cee3" stroke-linecap="square" fill="transparent" class="tentacle" data-subclone="2"></path><path d="M400,-25.4C373,-25.4,373.2,-8.1,355,-42.5C336.8,-76.9,337,-104.9,310,-104.9" stroke-width="2" stroke="#41ae76" stroke-linecap="square" fill="transparent" class="tentacle" data-subclone="10"></path><path d="M400,23.7C373,23.7,371.8,-0.2,355,-31.8C338.2,-63.5,337,-91.4,310,-91.4" stroke-width="2" stroke="#cf8d30" stroke-linecap="square" fill="transparent" class="tentacle" data-subclone="9"></path><path d="M400,53.9C373,53.9,372.1,11.1,355,-21.1C337.9,-53.3,337,-54.1,310,-54.1" stroke-width="2" stroke="#ff7f00" stroke-linecap="square" fill="transparent" class="tentacle" data-subclone="11"></path></g><g class="tentacle-bundle" data-sample="XXXX_r2Asc_DNA"><path d="M580,0C553,0,555.1,0,535,0C514.9,0,517,-21.4,490,-21.4" stroke-width="2" stroke="#ff99ff" stroke-linecap="square" fill="transparent" class="tentacle" data-subclone="5"></path></g></g></g><g class="legend" transform="matrix(1,0,0,1,710,180)"><rect width="12" height="12" fill="#cccccc" stroke="#a5a5a5" x="0" y="-65.5"></rect><text font-family="sans-serif" font-size="12" dominant-baseline="central" x="17" y="-58.5"><tspan dy="0" x="17">1</tspan></text><rect width="12" height="12" fill="#a6cee3" stroke="#86a6b7" x="0" y="-48.5"></rect><text font-family="sans-serif" font-size="12" dominant-baseline="central" x="17" y="-41.5"><tspan dy="0" x="17">2</tspan></text><rect width="12" height="12" fill="#cab2d6" stroke="#a390ad" x="0" y="-31.5"></rect><text font-family="sans-serif" font-size="12" dominant-baseline="central" x="17" y="-24.5"><tspan dy="0" x="17">4</tspan></text><rect width="12" height="12" fill="#ff99ff" stroke="#ce7cce" x="0" y="-14.5"></rect><text font-family="sans-serif" font-size="12" dominant-baseline="central" x="17" y="-7.5"><tspan dy="0" x="17">5</tspan></text><rect width="12" height="12" fill="#fdbf6f" stroke="#cc9a5a" x="0" y="2.5"></rect><text font-family="sans-serif" font-size="12" dominant-baseline="central" x="17" y="9.5"><tspan dy="0" x="17">6</tspan></text><rect width="12" height="12" fill="#cf8d30" stroke="#a77227" x="0" y="19.5"></rect><text font-family="sans-serif" font-size="12" dominant-baseline="central" x="17" y="26.5"><tspan dy="0" x="17">9</tspan></text><rect width="12" height="12" fill="#41ae76" stroke="#348c5f" x="0" y="36.5"></rect><text font-family="sans-serif" font-size="12" dominant-baseline="central" x="17" y="43.5"><tspan dy="0" x="17">10</tspan></text><rect width="12" height="12" fill="#ff7f00" stroke="#ce6700" x="0" y="53.5"></rect><text font-family="sans-serif" font-size="12" dominant-baseline="central" x="17" y="60.5"><tspan dy="0" x="17">11</tspan></text></g></svg>
