<svg xmlns="http://www.w3.org/2000/svg" version="1.1" xmlns:xlink="http://www.w3.org/1999/xlink" width="830" height="360"><defs><marker id="small-arrowhead" viewBox="0 0 10 10" refX="5" refY="5" markerWidth="6" markerHeight="6" orient="auto-start-reverse">
      <path d="M 0 0 L 9 5 L 0 10 z" fill="#606060"></path>
    </marker></defs><g transform="matrix(1,0,0,1,40.5,180.5)"><g class="sample-group"><g transform="matrix(1,0,0,1,0,-60)" class="sample" data-sample="root"><g class="bell"><path d="M0,60L1.8,60.3L3.6,60.7L5.4,61.2L7.2,61.8L9,62.5L10.8,63.4L12.6,64.3L14.4,65.4L16.2,66.5L18,67.8L19.8,69.2L21.6,70.7L23.4,72.2L25.2,73.9L27,75.6L28.8,77.5L30.6,79.3L32.4,81.2L34.2,83.2L36,85.2L37.8,87.2L39.6,89.3L41.4,91.3L43.2,93.4L45,95.4L46.8,97.4L48.6,99.3L50.4,101.2L52.2,103L54,104.8L55.8,106.5L57.6,108.1L59.4,109.6L61.2,111.1L63,112.4L64.8,113.6L66.6,114.7L68.4,115.7L70.2,116.6L72,117.4L73.8,118L75.6,118.6L77.4,119L79.2,119.4L81,119.6L82.8,119.8L84.6,119.9L86.4,120L88.2,120L90,120L90,0L88.2,0L86.4,0L84.6,0.1L82.8,0.2L81,0.4L79.2,0.6L77.4,1L75.6,1.4L73.8,2L72,2.6L70.2,3.4L68.4,4.3L66.6,5.3L64.8,6.4L63,7.6L61.2,8.9L59.4,10.4L57.6,11.9L55.8,13.5L54,15.2L52.2,17L50.4,18.8L48.6,20.7L46.8,22.6L45,24.6L43.2,26.6L41.4,28.7L39.6,30.7L37.8,32.8L36,34.8L34.2,36.8L32.4,38.8L30.6,40.7L28.8,42.5L27,44.4L25.2,46.1L23.4,47.8L21.6,49.3L19.8,50.8L18,52.2L16.2,53.5L14.4,54.6L12.6,55.7L10.8,56.6L9,57.5L7.2,58.2L5.4,58.8L3.6,59.3L1.8,59.7L0,60L0,60" fill="#dedede" stroke-width="1" stroke="#b3b3b3" class="subclone" data-subclone="1" data-descendant-subclones="[&quot;1&quot;,&quot;2&quot;,&quot;10&quot;,&quot;5&quot;,&quot;4&quot;,&quot;9&quot;,&quot;6&quot;,&quot;11&quot;]"><title>Subclone: 1
Clonal prevalence: 0.250
Cancer cell fraction: 1.000</title></path><path d="M21.6,61.8L23.4,62.1L25.2,62.5L27,62.9L28.8,63.5L30.6,64.2L32.4,65L34.2,65.9L36,67L37.8,68.3L39.6,69.7L41.4,71.3L43.2,73.1L45,75.1L46.8,77.2L48.6,79.6L50.4,82L52.2,84.6L54,87.3L55.8,90L57.6,92.8L59.4,95.6L61.2,98.4L63,101.1L64.8,103.7L66.6,106.2L68.4,108.5L70.2,110.6L72,112.6L73.8,114.3L75.6,115.8L77.4,117L79.2,118L81,118.8L82.8,119.3L84.6,119.7L86.4,119.9L88.2,120L90,120L90,30L88.2,30L86.4,30L84.6,30.1L82.8,30.3L81,30.6L79.2,31.1L77.4,31.7L75.6,32.5L73.8,33.5L72,34.6L70.2,35.9L68.4,37.4L66.6,38.9L64.8,40.6L63,42.4L61.2,44.2L59.4,46L57.6,47.9L55.8,49.7L54,51.4L52.2,53.1L50.4,54.6L48.6,56.1L46.8,57.4L45,58.6L43.2,59.6L41.4,60.4L39.6,61.1L37.8,61.7L36,62.1L34.2,62.3L32.4,62.5L30.6,62.5L28.8,62.5L27,62.4L25.2,62.2L23.4,62L21.6,61.8L21.6,61.8" fill="#c4dec2" stroke-width="1" stroke="#9eb39d" class="subclone" data-subclone="10" data-descendant-subclones="[&quot;10&quot;,&quot;5&quot;,&quot;4&quot;,&quot;9&quot;,&quot;6&quot;,&quot;11&quot;]"><title>Subclone: 10
Clonal prevalence: 0.250
Cancer cell fraction: 0.750</title></path><path d="M45,68.7L46.8,69.6L48.6,70.7L50.4,71.9L52.2,73.4L54,75.1L55.8,77L57.6,79.3L59.4,81.8L61.2,84.6L63,87.6L64.8,90.8L66.6,94.2L68.4,97.7L70.2,101.1L72,104.5L73.8,107.6L75.6,110.5L77.4,113.1L79.2,115.2L81,117L82.8,118.3L84.6,119.2L86.4,119.7L88.2,119.9L90,120L90,60L88.2,60L86.4,60L84.6,60.1L82.8,60.3L81,60.8L79.2,61.4L77.4,62.3L75.6,63.3L73.8,64.4L72,65.7L70.2,66.9L68.4,68.2L66.6,69.3L64.8,70.3L63,71.2L61.2,71.8L59.4,72.2L57.6,72.3L55.8,72.3L54,72L52.2,71.5L50.4,70.9L48.6,70.2L46.8,69.5L45,68.7L45,68.7" fill="#a1ddd7" stroke-width="1" stroke="#82b2ae" class="subclone" data-subclone="9" data-descendant-subclones="[&quot;9&quot;,&quot;6&quot;,&quot;11&quot;]"><title>Subclone: 9
Clonal prevalence: 0.250
Cancer cell fraction: 0.500</title></path><path d="M66.6,85.9L68.4,87.9L70.2,90.3L72,93.1L73.8,96.4L75.6,100.1L77.4,104.1L79.2,108L81,111.8L82.8,114.9L84.6,117.4L86.4,119L88.2,119.8L90,120L90,90L88.2,89.9L86.4,89.9L84.6,90L82.8,90.3L81,90.8L79.2,91.3L77.4,91.7L75.6,91.7L73.8,91.4L72,90.6L70.2,89.4L68.4,87.8L66.6,85.9L66.6,85.9" fill="#9ed5f3" stroke-width="1" stroke="#80acc4" class="subclone" data-subclone="11" data-descendant-subclones="[&quot;11&quot;]"><title>Subclone: 11
Clonal prevalence: 0.250
Cancer cell fraction: 0.250</title></path></g><text x="45" y="-6" font-family="sans-serif" font-size="12" text-anchor="middle" class="sample-display-name"><tspan dy="0" x="45">Inferred root</tspan></text></g><g transform="matrix(1,0,0,1,180,-140)" class="sample" data-sample="P3_pAsc_DNA1"><g class="bell"><rect width="90" height="109.7" x="0" y="0.2" fill="#dedede" stroke-width="1" stroke="#b3b3b3" class="subclone" data-subclone="1"><title>Subclone: 1
Clonal prevalence: 0.000
Cancer cell fraction: 0.997</title></rect><path d="M19.8,17.7L21.6,17.7L23.4,18L25.2,18.5L27,19.1L28.8,19.8L30.6,20.7L32.4,21.7L34.2,22.8L36,24L37.8,25.3L39.6,26.6L41.4,27.9L43.2,29.1L45,30.3L46.8,31.4L48.6,32.3L50.4,33.2L52.2,33.8L54,34.4L55.8,34.7L57.6,35L59.4,35.1L61.2,35.1L63,35.1L64.8,35.1L66.6,35.1L68.4,35.1L70.2,35.1L72,35.1L73.8,35.1L75.6,35.1L77.4,35.1L79.2,35.1L81,35.1L82.8,35.1L84.6,35.1L86.4,35.1L88.2,35.1L90,35.1L90,0.2L88.2,0.2L86.4,0.2L84.6,0.2L82.8,0.2L81,0.2L79.2,0.2L77.4,0.2L75.6,0.2L73.8,0.2L72,0.2L70.2,0.2L68.4,0.2L66.6,0.2L64.8,0.2L63,0.2L61.2,0.2L59.4,0.2L57.6,0.3L55.8,0.6L54,0.9L52.2,1.5L50.4,2.1L48.6,3L46.8,3.9L45,5L43.2,6.2L41.4,7.4L39.6,8.7L37.8,10L36,11.3L34.2,12.5L32.4,13.6L30.6,14.6L28.8,15.5L27,16.2L25.2,16.8L23.4,17.3L21.6,17.6L19.8,17.7L19.8,17.7" fill="#ded8ba" stroke-width="1" stroke="#b3ae96" class="subclone" data-subclone="2" data-descendant-subclones="[&quot;2&quot;]"><title>Subclone: 2
Clonal prevalence: 0.318
Cancer cell fraction: 0.318</title></path><rect width="90" height="74.7" x="0" y="35.1" fill="#a1ddd7" stroke-width="1" stroke="#82b2ae" class="subclone" data-subclone="9"><title>Subclone: 9
Clonal prevalence: 0.244
Cancer cell fraction: 0.679</title></rect><rect width="90" height="47.9" x="0" y="62" fill="#9ed5f3" stroke-width="1" stroke="#80acc4" class="subclone" data-subclone="11"><title>Subclone: 11
Clonal prevalence: 0.435
Cancer cell fraction: 0.435</title></rect><line x1="0" y1="35.144999999999996" x2="90" y2="35.144999999999996" stroke-dasharray="6,4" stroke-width="2" stroke="#c4dec2" class="pass-through" pointer-events="none" data-subclone="10" fill="null" style="mix-blend-mode: normal;"></line><line x1="68" y1="1" x2="68" y2="109" stroke-dasharray="1,4" stroke-linecap="round" stroke-opacity="0.5" stroke-width="1" stroke="black" class="sample-taken-line"></line><g class="sample-taken-label" transform="matrix(1,0,0,1,0,110)"><path d="M65,12L76,12A3,3,0,0,0,79,9L79,5" class="arrow" stroke-linecap="round" stroke-width="1" stroke="#606060" fill="none" marker-end="url(#small-arrowhead)"></path><text font-family="sans-serif" font-size="10" text-anchor="end" alignment-baseline="middle" transform="matrix(1,0,0,1,62,12)">Sample taken</text></g></g><text x="45" y="-6" font-family="sans-serif" font-size="12" text-anchor="middle" class="sample-display-name"><tspan dy="0" x="45">pAsc</tspan></text></g><g transform="matrix(1,0,0,1,180,30)" class="sample" data-sample="P3_pPer1_DNA"><g class="bell"><rect width="90" height="110.1" x="0" y="0" fill="#dedede" stroke-width="1" stroke="#b3b3b3" class="subclone" data-subclone="1"><title>Subclone: 1
Clonal prevalence: 0.170
Cancer cell fraction: 1.000</title></rect><rect width="90" height="91.4" x="0" y="18.6" fill="#a1ddd7" stroke-width="1" stroke="#82b2ae" class="subclone" data-subclone="9"><title>Subclone: 9
Clonal prevalence: 0.317
Cancer cell fraction: 0.831</title></rect><rect width="90" height="56.6" x="0" y="53.4" fill="#9ed5f3" stroke-width="1" stroke="#80acc4" class="subclone" data-subclone="11"><title>Subclone: 11
Clonal prevalence: 0.514
Cancer cell fraction: 0.514</title></rect><line x1="68" y1="1" x2="68" y2="109" stroke-dasharray="1,4" stroke-linecap="round" stroke-opacity="0.2" stroke-width="1" stroke="black" class="sample-taken-line"></line></g><text x="45" y="-6" font-family="sans-serif" font-size="12" text-anchor="middle" class="sample-display-name"><tspan dy="0" x="45">pPer1</tspan></text></g><g transform="matrix(1,0,0,1,360,-55)" class="sample" data-sample="P3_rAsc_DNA4"><g class="bell"><rect width="90" height="110.1" x="0" y="0" fill="#dedede" stroke-width="1" stroke="#b3b3b3" class="subclone" data-subclone="1"><title>Subclone: 1
Clonal prevalence: 0.054
Cancer cell fraction: 1.000</title></rect><rect width="90" height="3.6" x="0" y="5.9" fill="#ded8ba" stroke-width="1" stroke="#b3ae96" class="subclone" data-subclone="2"><title>Subclone: 2
Clonal prevalence: 0.033
Cancer cell fraction: 0.033</title></rect><rect width="90" height="100.5" x="0" y="9.5" fill="#c4dec2" stroke-width="1" stroke="#9eb39d" class="subclone" data-subclone="10"><title>Subclone: 10
Clonal prevalence: 0.072
Cancer cell fraction: 0.913</title></rect><path d="M19.8,33.6L21.6,33.7L23.4,34L25.2,34.4L27,34.9L28.8,35.6L30.6,36.4L32.4,37.3L34.2,38.4L36,39.5L37.8,40.7L39.6,41.9L41.4,43L43.2,44.2L45,45.3L46.8,46.3L48.6,47.2L50.4,47.9L52.2,48.5L54,49L55.8,49.4L57.6,49.6L59.4,49.7L61.2,49.7L63,49.7L64.8,49.7L66.6,49.7L68.4,49.7L70.2,49.7L72,49.7L73.8,49.7L75.6,49.7L77.4,49.7L79.2,49.7L81,49.7L82.8,49.7L84.6,49.7L86.4,49.7L88.2,49.7L90,49.7L90,17.5L88.2,17.5L86.4,17.5L84.6,17.5L82.8,17.5L81,17.5L79.2,17.5L77.4,17.5L75.6,17.5L73.8,17.5L72,17.5L70.2,17.5L68.4,17.5L66.6,17.5L64.8,17.5L63,17.5L61.2,17.5L59.4,17.5L57.6,17.6L55.8,17.8L54,18.2L52.2,18.7L50.4,19.3L48.6,20.1L46.8,20.9L45,21.9L43.2,23L41.4,24.2L39.6,25.4L37.8,26.5L36,27.7L34.2,28.8L32.4,29.9L30.6,30.8L28.8,31.6L27,32.3L25.2,32.9L23.4,33.3L21.6,33.5L19.8,33.6L19.8,33.6" fill="#d77ee6" stroke-width="1" stroke="#ae66ba" class="subclone" data-subclone="5" data-descendant-subclones="[&quot;5&quot;,&quot;4&quot;]"><title>Subclone: 5
Clonal prevalence: 0.293
Cancer cell fraction: 0.293</title></path><rect width="90" height="60.3" x="0" y="49.7" fill="#a1ddd7" stroke-width="1" stroke="#82b2ae" class="subclone" data-subclone="9"><title>Subclone: 9
Clonal prevalence: 0.294
Cancer cell fraction: 0.548</title></rect><path d="M19.8,94.9L21.6,95L23.4,95.2L25.2,95.5L27,96L28.8,96.5L30.6,97.2L32.4,97.9L34.2,98.7L36,99.6L37.8,100.5L39.6,101.5L41.4,102.4L43.2,103.3L45,104.2L46.8,105L48.6,105.7L50.4,106.3L52.2,106.8L54,107.2L55.8,107.4L57.6,107.6L59.4,107.7L61.2,107.7L63,107.7L64.8,107.7L66.6,107.7L68.4,107.7L70.2,107.7L72,107.7L73.8,107.7L75.6,107.7L77.4,107.7L79.2,107.7L81,107.7L82.8,107.7L84.6,107.7L86.4,107.7L88.2,107.7L90,107.7L90,82.1L88.2,82.1L86.4,82.1L84.6,82.1L82.8,82.1L81,82.1L79.2,82.1L77.4,82.1L75.6,82.1L73.8,82.1L72,82.1L70.2,82.1L68.4,82.1L66.6,82.1L64.8,82.1L63,82.1L61.2,82.1L59.4,82.2L57.6,82.3L55.8,82.4L54,82.7L52.2,83.1L50.4,83.6L48.6,84.2L46.8,84.9L45,85.7L43.2,86.6L41.4,87.5L39.6,88.4L37.8,89.3L36,90.3L34.2,91.1L32.4,92L30.6,92.7L28.8,93.4L27,93.9L25.2,94.3L23.4,94.7L21.6,94.9L19.8,94.9L19.8,94.9" fill="#a4aeff" stroke-width="1" stroke="#848cce" class="subclone" data-subclone="6" data-descendant-subclones="[&quot;6&quot;]"><title>Subclone: 6
Clonal prevalence: 0.233
Cancer cell fraction: 0.233</title></path><rect width="90" height="2.3" x="0" y="107.7" fill="#9ed5f3" stroke-width="1" stroke="#80acc4" class="subclone" data-subclone="11"><title>Subclone: 11
Clonal prevalence: 0.021
Cancer cell fraction: 0.021</title></rect><line x1="68" y1="1" x2="68" y2="109" stroke-dasharray="1,4" stroke-linecap="round" stroke-opacity="0.2" stroke-width="1" stroke="black" class="sample-taken-line"></line></g><text x="45" y="-6" font-family="sans-serif" font-size="12" text-anchor="middle" class="sample-display-name"><tspan dy="0" x="45">rAsc</tspan></text></g><g transform="matrix(1,0,0,1,540,-55)" class="sample" data-sample="P3_r2Asc_DNA"><g class="bell"><rect width="90" height="108.2" x="0" y="0.9" fill="#d77ee6" stroke-width="1" stroke="#ae66ba" class="subclone" data-subclone="5"><title>Subclone: 5
Clonal prevalence: 0.034
Cancer cell fraction: 0.984</title></rect><path d="M19.8,56.9L21.6,57.1L23.4,58L25.2,59.3L27,61.1L28.8,63.3L30.6,65.9L32.4,69L34.2,72.3L36,75.9L37.8,79.7L39.6,83.6L41.4,87.4L43.2,91.1L45,94.6L46.8,97.9L48.6,100.7L50.4,103.2L52.2,105.2L54,106.8L55.8,107.9L57.6,108.6L59.4,109L61.2,109.1L63,109.1L64.8,109.1L66.6,109.1L68.4,109.1L70.2,109.1L72,109.1L73.8,109.1L75.6,109.1L77.4,109.1L79.2,109.1L81,109.1L82.8,109.1L84.6,109.1L86.4,109.1L88.2,109.1L90,109.1L90,4.6L88.2,4.6L86.4,4.6L84.6,4.6L82.8,4.6L81,4.6L79.2,4.6L77.4,4.6L75.6,4.6L73.8,4.6L72,4.6L70.2,4.6L68.4,4.6L66.6,4.6L64.8,4.6L63,4.6L61.2,4.6L59.4,4.7L57.6,5.1L55.8,5.8L54,6.9L52.2,8.5L50.4,10.5L48.6,13L46.8,15.9L45,19.1L43.2,22.6L41.4,26.4L39.6,30.2L37.8,34L36,37.8L34.2,41.4L32.4,44.8L30.6,47.8L28.8,50.4L27,52.7L25.2,54.4L23.4,55.7L21.6,56.6L19.8,56.9L19.8,56.9" fill="#fc5787" stroke-width="1" stroke="#cb466d" class="subclone" data-subclone="4" data-descendant-subclones="[&quot;4&quot;]"><title>Subclone: 4
Clonal prevalence: 0.950
Cancer cell fraction: 0.950</title></path><line x1="68" y1="1" x2="68" y2="109" stroke-dasharray="1,4" stroke-linecap="round" stroke-opacity="0.2" stroke-width="1" stroke="black" class="sample-taken-line"></line></g><text x="45" y="-6" font-family="sans-serif" font-size="12" text-anchor="middle" class="sample-display-name"><tspan dy="0" x="45">r2Asc</tspan></text></g></g><g class="tentacle-group" pointer-events="none"><g class="tentacle-bundle" data-sample="P3_pAsc_DNA1"><path d="M180,-122.3C153,-122.3,153.5,-93.5,135,-58.5C116.5,-23.6,117,-50,90,-50" stroke-width="2" stroke="#d1d1d1" stroke-linecap="square" fill="transparent" class="tentacle" data-subclone="1" style="mix-blend-mode: normal;"></path><path d="M180,-104.9C153,-104.9,152.8,-81.5,135,-47.8C117.2,-14.2,117,-15,90,-15" stroke-width="2" stroke="#c0d9be" stroke-linecap="square" fill="transparent" class="tentacle" data-subclone="10" style="mix-blend-mode: normal;"></path><path d="M180,-91.4C153,-91.4,152.3,-69.9,135,-37.2C117.7,-4.4,117,10,90,10" stroke-width="2" stroke="#a1ddd7" stroke-linecap="square" fill="transparent" class="tentacle" data-subclone="9" style="mix-blend-mode: normal;"></path><path d="M180,-54.1C153,-54.1,152.6,-59.8,135,-26.5C117.4,6.8,117,40,90,40" stroke-width="2" stroke="#9ed5f3" stroke-linecap="square" fill="transparent" class="tentacle" data-subclone="11" style="mix-blend-mode: normal;"></path></g><g class="tentacle-bundle" data-sample="P3_pPer1_DNA"><path d="M180,39.3C153,39.3,153.2,66.2,135,31.8C116.8,-2.6,117,-40,90,-40" stroke-width="2" stroke="#d1d1d1" stroke-linecap="square" fill="transparent" class="tentacle" data-subclone="1" style="mix-blend-mode: normal;"></path><path d="M180,66C153,66,154.5,79.2,135,42.5C115.5,5.8,117,20,90,20" stroke-width="2" stroke="#a1ddd7" stroke-linecap="square" fill="transparent" class="tentacle" data-subclone="9" style="mix-blend-mode: normal;"></path><path d="M180,111.7C153,111.7,153.9,88.9,135,53.2C116.1,17.5,117,50,90,50" stroke-width="2" stroke="#9ed5f3" stroke-linecap="square" fill="transparent" class="tentacle" data-subclone="11" style="mix-blend-mode: normal;"></path></g><g class="tentacle-bundle" data-sample="P3_rAsc_DNA4"><path d="M360,-52.1C333,-52.1,332.9,-30.1,315,-63.9C297.1,-97.7,297,-139.8,270,-139.8" stroke-width="2" stroke="#d1d1d1" stroke-linecap="square" fill="transparent" class="tentacle" data-subclone="1" style="mix-blend-mode: normal;"></path><path d="M360,-47.3C333,-47.3,333.4,-18.4,315,-53.2C296.6,-87.9,297,-122.3,270,-122.3" stroke-width="2" stroke="#d8d2b4" stroke-linecap="square" fill="transparent" class="tentacle" data-subclone="2" style="mix-blend-mode: normal;"></path><path d="M360,-25.4C333,-25.4,333.2,-8.1,315,-42.5C296.8,-76.9,297,-104.9,270,-104.9" stroke-width="2" stroke="#c0d9be" stroke-linecap="square" fill="transparent" class="tentacle" data-subclone="10" style="mix-blend-mode: normal;"></path><path d="M360,23.7C333,23.7,331.8,-0.2,315,-31.8C298.2,-63.5,297,-91.4,270,-91.4" stroke-width="2" stroke="#a1ddd7" stroke-linecap="square" fill="transparent" class="tentacle" data-subclone="9" style="mix-blend-mode: normal;"></path><path d="M360,53.9C333,53.9,332.1,11.1,315,-21.1C297.9,-53.3,297,-54.1,270,-54.1" stroke-width="2" stroke="#9ed5f3" stroke-linecap="square" fill="transparent" class="tentacle" data-subclone="11" style="mix-blend-mode: normal;"></path></g><g class="tentacle-bundle" data-sample="P3_r2Asc_DNA"><path d="M540,0C513,0,515.1,0,495,0C474.9,0,477,-21.4,450,-21.4" stroke-width="2" stroke="#d77ee6" stroke-linecap="square" fill="transparent" class="tentacle" data-subclone="5" style="mix-blend-mode: normal;"></path></g></g><g class="legend" transform="matrix(1,0,0,1,670,-65)"><rect width="12" height="12" fill="#dedede" stroke="#b3b3b3" x="0" y="0" class="legend-rect" data-subclone="1"><title>Branch length: 4961</title></rect><text font-family="sans-serif" font-size="12" alignment-baseline="middle" x="17" y="11"><tspan dy="0" x="17">1</tspan></text><rect width="12" height="12" fill="#ded8ba" stroke="#b3ae96" x="0" y="17" class="legend-rect" data-subclone="2"><title>Branch length: 239</title></rect><text font-family="sans-serif" font-size="12" alignment-baseline="middle" x="17" y="28"><tspan dy="0" x="17">2</tspan></text><rect width="12" height="12" fill="#c4dec2" stroke="#9eb39d" x="0" y="34" class="legend-rect" data-subclone="10"><title>Branch length: 314</title></rect><text font-family="sans-serif" font-size="12" alignment-baseline="middle" x="17" y="45"><tspan dy="0" x="17">10</tspan></text><rect width="12" height="12" fill="#a1ddd7" stroke="#82b2ae" x="0" y="51" class="legend-rect" data-subclone="9"><title>Branch length: 223</title></rect><text font-family="sans-serif" font-size="12" alignment-baseline="middle" x="17" y="62"><tspan dy="0" x="17">9</tspan></text><rect width="12" height="12" fill="#9ed5f3" stroke="#80acc4" x="0" y="68" class="legend-rect" data-subclone="11"><title>Branch length: 117</title></rect><text font-family="sans-serif" font-size="12" alignment-baseline="middle" x="17" y="79"><tspan dy="0" x="17">11</tspan></text><rect width="12" height="12" fill="#a4aeff" stroke="#848cce" x="0" y="85" class="legend-rect" data-subclone="6"><title>Branch length: 979</title></rect><text font-family="sans-serif" font-size="12" alignment-baseline="middle" x="17" y="96"><tspan dy="0" x="17">6</tspan></text><rect width="12" height="12" fill="#d77ee6" stroke="#ae66ba" x="0" y="102" class="legend-rect" data-subclone="5"><title>Branch length: 1802</title></rect><text font-family="sans-serif" font-size="12" alignment-baseline="middle" x="17" y="113"><tspan dy="0" x="17">5</tspan></text><rect width="12" height="12" fill="#fc5787" stroke="#cb466d" x="0" y="119" class="legend-rect" data-subclone="4"><title>Branch length: 437</title></rect><text font-family="sans-serif" font-size="12" alignment-baseline="middle" x="17" y="130"><tspan dy="0" x="17">4</tspan></text><g class="sample-taken-label"><path d="M15,-17L9,-17A3,3,0,0,0,6,-14L6,-5" class="arrow" stroke-linecap="round" stroke-width="1" stroke="#606060" fill="none" marker-end="url(#small-arrowhead)"></path><text font-family="sans-serif" font-size="10" text-anchor="start" alignment-baseline="middle" transform="matrix(1,0,0,1,18,-17)">Subclone</text></g><g transform="matrix(1,0,0,1,37,0)"><line x1="0" y1="6" x2="33.9113845407237" y2="6" stroke-linecap="round" stroke-width="3" stroke="#b0b0b0"></line><line x1="0" y1="23" x2="7.567958018962752" y2="23" stroke-linecap="round" stroke-width="3" stroke="#b0b0b0"></line><line x1="0" y1="40" x2="9.938592961464291" y2="40" stroke-linecap="round" stroke-width="3" stroke="#b0b0b0"></line><line x1="0" y1="57" x2="6.96609726096321" y2="57" stroke-linecap="round" stroke-width="3" stroke="#b0b0b0"></line><line x1="0" y1="74" x2="1.3637172349232305" y2="74" stroke-linecap="round" stroke-width="3" stroke="#b0b0b0"></line><line x1="0" y1="91" x2="19.81565383606275" y2="91" stroke-linecap="round" stroke-width="3" stroke="#b0b0b0"></line><line x1="0" y1="108" x2="25.115095732860876" y2="108" stroke-linecap="round" stroke-width="3" stroke="#b0b0b0"></line><line x1="0" y1="125" x2="12.80962873940843" y2="125" stroke-linecap="round" stroke-width="3" stroke="#b0b0b0"></line><g class="legend-ticks" transform="matrix(1,0,0,1,0,136)"><line x1="0" y1="0" x2="0" y2="4" stroke-linecap="round" stroke-width="1" stroke="#a0a0a0"></line><text font-family="sans-serif" font-size="9.600000000000001" text-anchor="end" alignment-baseline="middle" transform="translate(0, 8) rotate(-45)">100</text><line x1="19.999999999999993" y1="0" x2="19.999999999999993" y2="4" stroke-linecap="round" stroke-width="1" stroke="#a0a0a0"></line><text font-family="sans-serif" font-size="9.600000000000001" text-anchor="end" alignment-baseline="middle" transform="translate(19.999999999999993, 8) rotate(-45)">1000</text><line x1="40" y1="0" x2="40" y2="4" stroke-linecap="round" stroke-width="1" stroke="#a0a0a0"></line><text font-family="sans-serif" font-size="9.600000000000001" text-anchor="end" alignment-baseline="middle" transform="translate(40, 8) rotate(-45)">10000</text><line x1="0" y1="0" x2="40" y2="0" stroke-linecap="round" stroke-width="1" stroke="#a0a0a0"></line></g><text font-family="sans-serif" font-size="10" transform="matrix(1,0,0,1,-3,1)" class="legend-title">Variants</text></g></g></g></svg>